<?xml version="1.0" standalone="no"?>
<!DOCTYPE svg PUBLIC "-//W3C//DTD SVG 20010904//EN"
 "http://www.w3.org/TR/2001/REC-SVG-20010904/DTD/svg10.dtd">
<svg version="1.0" xmlns="http://www.w3.org/2000/svg"
 width="1106.000000pt" height="1131.000000pt" viewBox="0 0 1106.000000 1131.000000"
 preserveAspectRatio="xMidYMid meet">

<g transform="translate(0.000000,1131.000000) scale(0.100000,-0.100000)"
fill="#000000" stroke="none">
<path d="M5400 7926 c0 -2 11 -6 25 -8 13 -3 22 -1 19 3 -5 9 -44 13 -44 5z"/>
<path d="M5366 7898 c-8 -12 -12 -26 -8 -32 4 -7 8 -3 10 9 2 11 9 26 14 33 6
6 8 12 5 12 -3 0 -13 -10 -21 -22z"/>
<path d="M5640 7871 c-3 -30 -2 -79 1 -110 l6 -56 2 53 c0 31 6 52 12 52 8 0
8 4 1 13 -6 7 -12 33 -14 57 l-3 45 -5 -54z"/>
<path d="M5758 7868 c-2 -29 -1 -80 3 -113 5 -50 6 -42 8 53 1 119 -4 147 -11
60z"/>
<path d="M5043 7860 c0 -25 2 -35 4 -22 2 12 2 32 0 45 -2 12 -4 2 -4 -23z"/>
<path d="M5370 7840 c0 -5 9 -14 20 -20 11 -6 20 -7 20 -3 0 5 -9 14 -20 21
-11 7 -20 8 -20 2z"/>
<path d="M5050 7790 c0 -21 4 -23 33 -11 17 6 16 8 -7 19 -23 10 -26 9 -26 -8z"/>
<path d="M5994 7786 c-3 -14 -3 -30 1 -35 9 -16 41 -13 55 4 10 13 10 19 -5
35 -24 27 -43 25 -51 -4z"/>
<path d="M5440 7791 c0 -6 5 -11 10 -11 13 0 13 -57 0 -63 -6 -3 -5 -4 2 -3
17 3 17 78 1 84 -7 2 -13 -1 -13 -7z"/>
<path d="M4701 7773 c-15 -13 -19 -25 -15 -40 4 -13 10 -23 15 -23 5 0 9 -8
10 -17 0 -10 3 -13 5 -6 3 6 -3 24 -12 38 -17 26 -17 28 2 39 10 6 30 14 44
17 l25 7 -26 1 c-15 0 -36 -7 -48 -16z"/>
<path d="M6390 7765 c-6 -8 -9 -19 -5 -25 7 -11 34 15 35 33 0 12 -17 8 -30
-8z"/>
<path d="M5060 7712 c0 -17 4 -34 10 -37 6 -4 7 6 3 27 -8 44 -13 48 -13 10z"/>
<path d="M6346 7714 c-9 -24 -7 -28 9 -14 17 14 20 30 6 30 -5 0 -12 -7 -15
-16z"/>
<path d="M4801 7711 c0 -8 -9 -23 -18 -34 -17 -19 -17 -20 4 -15 13 4 27 0 34
-8 13 -16 29 -19 29 -5 0 5 -9 12 -19 16 -12 3 -22 17 -24 33 -2 15 -5 21 -6
13z"/>
<path d="M6393 7680 c0 -25 2 -35 4 -22 2 12 2 32 0 45 -2 12 -4 2 -4 -23z"/>
<path d="M4501 7642 c-29 -24 -31 -30 -21 -52 l10 -25 -5 28 c-3 15 -2 27 2
27 12 1 56 40 51 45 -2 3 -19 -8 -37 -23z"/>
<path d="M4731 7649 c8 -16 14 -18 22 -10 9 9 8 14 -3 21 -24 16 -31 11 -19
-11z"/>
<path d="M6280 7640 c-6 -11 -7 -20 -2 -20 10 0 32 21 32 32 0 16 -19 8 -30
-12z"/>
<path d="M6456 7645 c-9 -9 -16 -22 -16 -28 0 -6 10 -2 22 11 12 12 19 24 16
27 -3 3 -13 -1 -22 -10z"/>
<path d="M6369 7585 c-3 -27 -4 -52 -2 -54 2 -3 16 7 30 22 15 14 24 30 19 34
-4 4 -11 1 -16 -7 -10 -16 -14 -9 -23 35 -2 11 -6 -2 -8 -30z"/>
<path d="M4760 7604 c0 -13 18 -39 24 -34 2 3 -2 14 -10 24 -8 11 -14 16 -14
10z"/>
<path d="M6676 7555 c-11 -8 -14 -15 -8 -15 7 0 17 -10 22 -22 l9 -23 0 22 c1
12 6 25 11 28 11 7 4 25 -8 25 -4 0 -16 -7 -26 -15z"/>
<path d="M4514 7532 c18 -34 30 -35 39 -3 3 14 1 18 -9 14 -8 -3 -22 1 -31 8
-15 13 -14 11 1 -19z"/>
<path d="M6584 7495 c-16 -13 -17 -16 -4 -25 11 -7 16 -5 19 8 2 9 8 20 15 24
7 5 7 8 0 8 -5 0 -19 -7 -30 -15z"/>
<path d="M4550 7481 c0 -5 5 -13 10 -16 6 -3 10 -2 10 4 0 5 -4 13 -10 16 -5
3 -10 2 -10 -4z"/>
<path d="M6666 7475 c-3 -8 -1 -15 4 -15 6 0 10 7 10 15 0 8 -2 15 -4 15 -2 0
-6 -7 -10 -15z"/>
<path d="M6545 7470 c-3 -5 -1 -10 4 -10 6 0 11 5 11 10 0 6 -2 10 -4 10 -3 0
-8 -4 -11 -10z"/>
<path d="M6645 7442 c-6 -4 -12 -23 -12 -42 l-2 -35 15 34 c16 36 15 55 -1 43z"/>
<path d="M4327 7414 c-12 -12 -8 -41 7 -53 22 -18 58 4 54 32 -3 22 -45 36
-61 21z"/>
<path d="M6862 7297 c-39 -40 -72 -79 -72 -87 0 -8 36 21 80 65 44 44 80 83
80 87 0 18 -20 4 -88 -65z"/>
<path d="M4110 7346 c0 -4 7 -14 15 -22 8 -9 15 -11 15 -6 0 5 -7 15 -15 22
-8 7 -15 9 -15 6z"/>
<path d="M4154 7277 c3 -10 6 -27 6 -37 0 -16 27 -36 37 -26 2 2 -8 21 -23 42
-15 22 -24 31 -20 21z"/>
<path d="M5225 7278 c-35 -19 -66 -52 -86 -90 -17 -33 -19 -61 -19 -253 l0
-215 -30 0 c-69 0 -140 -48 -171 -115 -17 -36 -19 -69 -19 -321 l0 -282 -75
-4 c-66 -3 -78 -7 -102 -31 l-28 -27 -5 -398 -5 -397 -70 -3 c-98 -3 -113 -8
-135 -45 -25 -40 -27 -125 -4 -168 30 -58 41 -59 515 -59 238 1 434 -1 436 -4
3 -3 0 -33 -6 -68 -15 -90 -73 -201 -140 -270 l-57 -58 -104 0 c-125 0 -187
-23 -236 -86 -46 -58 -69 -132 -51 -161 6 -10 166 -13 722 -13 393 0 721 3
730 6 34 13 -6 133 -62 186 -53 51 -108 68 -221 68 l-102 0 -59 59 c-32 34
-71 88 -89 124 -30 60 -70 202 -60 212 3 3 208 6 457 8 l453 2 29 33 c26 29
29 39 29 100 0 56 -4 72 -24 97 -23 28 -29 30 -113 35 l-88 5 -5 365 c-4 264
-8 371 -17 387 -27 46 -95 93 -145 99 l-48 7 0 287 c0 279 -1 288 -23 331 -17
34 -35 50 -77 72 -29 15 -69 27 -87 27 l-33 0 0 214 c0 228 -4 253 -48 299
-54 57 -55 57 -394 57 -209 -1 -320 -4 -333 -12z m625 -14 c32 -7 110 -71 110
-91 0 -6 -16 -14 -35 -17 -37 -7 -59 -30 -108 -116 -25 -43 -38 -56 -60 -58
-37 -4 -50 8 -93 85 -34 60 -72 93 -107 93 -26 0 -66 -41 -103 -103 -41 -70
-48 -77 -87 -77 -23 0 -31 8 -55 52 -37 72 -93 128 -126 128 -32 0 -32 4 -4
42 44 62 73 68 369 68 147 0 281 -3 299 -6z m-622 -162 c15 -15 39 -51 54 -80
62 -116 136 -103 207 36 35 69 83 87 119 43 6 -9 26 -41 42 -72 47 -85 101
-107 153 -61 10 9 34 45 54 79 37 68 62 88 93 78 19 -6 20 -16 20 -206 l0
-199 -410 0 -410 0 0 193 c0 195 4 217 38 217 7 0 26 -13 40 -28z m865 -426
c18 -7 45 -28 62 -45 26 -28 30 -40 33 -104 3 -62 1 -76 -18 -99 -23 -30 -56
-36 -82 -15 -8 6 -30 38 -47 69 -36 65 -73 98 -107 98 -25 0 -94 -54 -94 -74
0 -7 -14 -33 -30 -60 -27 -42 -34 -47 -63 -44 -23 2 -37 11 -52 36 -62 101
-82 127 -107 136 -46 16 -79 -3 -115 -64 -48 -84 -72 -110 -98 -110 -25 0 -58
36 -88 95 -24 48 -67 85 -97 85 -38 0 -71 -29 -104 -92 -16 -29 -36 -61 -44
-70 -21 -25 -59 -22 -87 7 -20 19 -25 34 -25 72 0 96 38 162 106 183 16 4 253
9 527 9 402 1 504 -2 530 -13z m-866 -148 c11 -13 31 -43 43 -67 32 -63 63
-91 103 -91 39 0 68 27 118 113 53 90 98 88 145 -6 37 -73 71 -107 109 -107
43 0 68 21 105 87 42 76 58 93 86 93 24 0 58 -38 89 -100 29 -59 54 -80 96
-80 21 0 41 5 44 10 20 32 25 -6 25 -185 l0 -195 -630 0 -630 0 0 195 c0 179
5 217 25 185 3 -5 23 -10 44 -10 44 0 63 18 111 100 49 85 79 99 117 58z
m1064 -569 c61 -21 109 -82 109 -140 0 -21 -1 -21 -24 4 -54 59 -108 45 -161
-42 -60 -98 -64 -102 -98 -99 -27 3 -37 12 -69 68 -21 36 -49 75 -63 88 -53
46 -100 21 -163 -88 -30 -53 -43 -66 -66 -68 -34 -4 -55 14 -85 72 -66 133
-144 140 -210 17 -39 -75 -55 -91 -88 -91 -29 0 -43 14 -78 81 -28 55 -77 99
-109 99 -34 0 -68 -31 -100 -92 -39 -72 -54 -88 -86 -88 -32 0 -49 18 -84 87
-29 58 -67 93 -102 93 -13 0 -39 -14 -59 -31 l-35 -31 0 57 c0 64 12 92 43
105 34 14 1487 12 1528 -1z m-1451 -139 c10 -5 32 -36 50 -67 47 -85 67 -103
111 -103 43 0 75 31 121 118 47 87 93 80 145 -22 35 -70 65 -96 108 -96 42 0
74 29 110 100 50 98 97 104 143 18 45 -83 79 -118 117 -118 43 0 75 29 111 98
53 105 98 105 158 -2 41 -74 67 -96 111 -96 38 0 59 22 110 107 54 95 98 95
146 1 18 -35 19 -59 17 -325 l-3 -288 -835 0 -835 0 -3 288 c-3 308 -1 317 51
375 22 24 39 27 67 12z m1770 -730 c16 -16 20 -33 20 -83 0 -113 116 -102
-1072 -102 l-1030 0 -19 24 c-28 34 -27 127 3 158 l21 23 1029 0 c1015 0 1028
0 1048 -20z m-946 -242 c3 -13 6 -32 6 -44 0 -67 90 -246 148 -298 12 -11 22
-23 22 -28 0 -4 -126 -8 -280 -8 -154 0 -280 3 -280 6 0 3 21 29 47 58 60 67
112 175 125 265 l10 71 98 0 c93 0 98 -1 104 -22z m474 -424 c66 -27 118 -91
124 -154 l3 -25 -700 0 -700 0 -3 23 c-7 47 72 142 138 165 8 3 259 6 558 6
469 1 548 -1 580 -15z"/>
<path d="M4058 7243 c6 -2 18 -2 25 0 6 3 1 5 -13 5 -14 0 -19 -2 -12 -5z"/>
<path d="M4210 7206 c0 -2 7 -9 15 -16 9 -7 15 -8 15 -2 0 5 -7 12 -15 16 -8
3 -15 4 -15 2z"/>
<path d="M7040 7170 c-13 -11 -19 -20 -14 -20 13 1 61 40 48 40 -6 0 -21 -9
-34 -20z"/>
<path d="M6978 7131 c-31 -18 -52 -60 -45 -88 3 -12 5 -10 6 8 1 17 14 38 37
59 41 36 42 44 2 21z"/>
<path d="M3946 7089 c-33 -39 -33 -44 6 -45 27 -1 29 1 15 11 -14 10 -14 15
-2 38 18 35 13 34 -19 -4z"/>
<path d="M7115 7060 c-3 -6 1 -7 9 -4 18 7 21 14 7 14 -6 0 -13 -4 -16 -10z"/>
<path d="M3996 7025 c4 -8 11 -15 16 -15 6 0 5 6 -2 15 -7 8 -14 15 -16 15 -2
0 -1 -7 2 -15z"/>
<path d="M7048 7013 c7 -3 16 -2 19 1 4 3 -2 6 -13 5 -11 0 -14 -3 -6 -6z"/>
<path d="M6983 6993 c9 -2 25 -2 35 0 9 3 1 5 -18 5 -19 0 -27 -2 -17 -5z"/>
<path d="M7280 6903 c0 -7 5 -15 10 -18 6 -3 11 -18 11 -33 2 -23 2 -24 6 -5
2 13 -3 33 -11 45 -9 12 -16 17 -16 11z"/>
<path d="M7230 6890 c0 -5 7 -7 15 -4 8 4 15 8 15 10 0 2 -7 4 -15 4 -8 0 -15
-4 -15 -10z"/>
<path d="M7173 6870 c-26 -11 -30 -25 -8 -34 25 -9 17 -48 -17 -83 -22 -23
-27 -33 -16 -33 24 0 72 75 60 96 -12 22 -4 52 17 57 12 4 12 5 1 5 -8 0 -25
-3 -37 -8z"/>
<path d="M3800 6840 c-11 -11 -19 -32 -19 -47 2 -27 2 -27 6 -3 3 14 16 35 30
48 15 12 21 22 15 22 -7 0 -21 -9 -32 -20z"/>
<path d="M7245 6790 c-3 -5 -2 -10 4 -10 5 0 13 5 16 10 3 6 2 10 -4 10 -5 0
-13 -4 -16 -10z"/>
<path d="M3894 6775 c-10 -8 -28 -15 -39 -16 -18 -1 -18 -2 -2 -6 10 -3 28 2
41 10 12 8 33 17 47 20 l24 4 -26 2 c-14 0 -34 -6 -45 -14z"/>
<path d="M3992 6735 c0 -16 2 -22 5 -12 2 9 2 23 0 30 -3 6 -5 -1 -5 -18z"/>
<path d="M3940 6679 c0 -5 5 -7 10 -4 6 3 10 8 10 11 0 2 -4 4 -10 4 -5 0 -10
-5 -10 -11z"/>
<path d="M7387 6606 c-10 -8 -14 -17 -9 -20 15 -9 42 4 42 20 0 17 -10 17 -33
0z"/>
<path d="M7257 6594 c-3 -4 -21 -10 -39 -14 l-33 -8 37 -1 c31 -1 40 -6 53
-31 16 -31 7 -70 -15 -70 -6 0 -10 -8 -10 -17 0 -13 9 -9 35 17 l34 33 -19 25
c-33 41 -26 60 23 65 42 3 41 4 -9 5 -28 1 -53 -1 -57 -4z"/>
<path d="M3630 6515 c0 -17 21 -20 37 -4 5 5 32 9 59 7 44 -3 49 -6 48 -25 0
-13 3 -23 8 -23 4 0 8 9 8 20 0 12 10 24 23 30 15 6 -9 9 -80 9 -85 1 -103 -2
-103 -14z"/>
<path d="M3705 6460 c3 -5 11 -10 16 -10 6 0 7 5 4 10 -3 6 -11 10 -16 10 -6
0 -7 -4 -4 -10z"/>
<path d="M3746 6441 c-3 -4 6 -13 19 -19 27 -12 33 -4 13 16 -14 14 -25 15
-32 3z"/>
<path d="M3805 6400 c3 -5 8 -10 11 -10 2 0 4 5 4 10 0 6 -5 10 -11 10 -5 0
-7 -4 -4 -10z"/>
<path d="M7458 6313 c6 -2 18 -2 25 0 6 3 1 5 -13 5 -14 0 -19 -2 -12 -5z"/>
<path d="M7373 6293 c9 -2 23 -2 30 0 6 3 -1 5 -18 5 -16 0 -22 -2 -12 -5z"/>
<path d="M3550 6222 c0 -23 5 -42 10 -42 7 0 8 14 4 38 -9 51 -14 53 -14 4z"/>
<path d="M7302 6210 c0 -14 2 -19 5 -12 2 6 2 18 0 25 -3 6 -5 1 -5 -13z"/>
<path d="M3588 6193 c6 -2 18 -2 25 0 6 3 1 5 -13 5 -14 0 -19 -2 -12 -5z"/>
<path d="M3693 6173 c9 -2 23 -2 30 0 6 3 -1 5 -18 5 -16 0 -22 -2 -12 -5z"/>
<path d="M3560 5990 c-24 -45 29 -80 63 -42 15 16 15 20 1 40 -19 27 -50 28
-64 2z"/>
<path d="M7426 5984 c-9 -8 -16 -19 -16 -24 0 -5 7 -16 16 -24 19 -20 54 -5
54 24 0 29 -35 44 -54 24z"/>
<path d="M2698 3646 c-74 -33 -118 -100 -125 -191 -4 -51 -1 -68 24 -115 39
-77 100 -114 186 -113 34 0 79 8 100 17 32 14 37 14 37 1 0 -8 4 -15 9 -15 10
0 18 71 13 108 -4 29 -18 28 -26 -2 -3 -13 -22 -38 -41 -55 -31 -26 -44 -31
-90 -31 -70 0 -108 30 -130 103 -40 136 13 271 112 284 55 7 108 -19 136 -68
12 -21 25 -39 30 -39 4 0 7 27 7 60 0 33 -4 60 -9 60 -5 0 -11 -5 -13 -10 -2
-7 -19 -5 -47 5 -51 18 -135 18 -173 1z"/>
<path d="M3351 3640 c-81 -37 -121 -102 -121 -197 0 -113 65 -193 177 -218 93
-20 210 63 232 163 39 183 -124 326 -288 252z m145 -15 c48 -20 74 -81 75
-173 2 -155 -61 -227 -173 -199 -66 16 -97 76 -98 190 -1 154 81 230 196 182z"/>
<path d="M4055 3641 c-77 -36 -115 -102 -115 -201 0 -166 149 -259 308 -193
28 12 33 11 38 -2 13 -34 24 -11 24 50 0 72 -11 82 -36 33 -30 -57 -62 -78
-123 -78 -93 0 -132 50 -139 175 -7 138 40 210 139 210 55 0 94 -24 118 -73 9
-17 19 -32 24 -32 4 0 7 30 7 68 -1 57 -3 64 -14 50 -11 -15 -16 -15 -52 -3
-55 20 -132 18 -179 -4z"/>
<path d="M4720 3644 c-119 -51 -164 -202 -96 -318 57 -97 181 -130 276 -74 93
54 128 147 99 261 -28 112 -170 178 -279 131z m135 -18 c67 -28 99 -131 77
-250 -9 -49 -18 -67 -47 -93 -29 -28 -42 -33 -84 -33 -93 0 -135 63 -135 201
0 92 24 145 75 171 41 22 69 22 114 4z"/>
<path d="M7566 3640 c-83 -42 -118 -101 -118 -195 0 -103 57 -184 150 -211
101 -30 206 21 247 118 39 95 7 216 -73 273 -56 39 -147 46 -206 15z m175 -36
c37 -35 53 -99 47 -187 -8 -119 -48 -167 -140 -167 -86 0 -128 63 -128 195 0
141 48 202 150 190 29 -3 53 -14 71 -31z"/>
<path d="M8497 3652 c-40 -2 -65 -7 -62 -12 4 -6 17 -10 31 -10 l24 0 0 -151
0 -151 -32 40 c-18 21 -76 93 -128 160 l-95 121 -52 1 c-29 0 -53 -4 -53 -10
0 -5 14 -10 30 -10 l30 0 -2 -187 -3 -188 -27 -3 c-56 -7 -26 -22 42 -22 68 0
98 15 43 22 l-28 3 -2 153 c-1 83 2 152 5 152 4 0 66 -74 137 -165 78 -98 137
-164 148 -165 16 0 17 16 17 200 l0 200 24 0 c24 0 44 15 29 22 -5 2 -39 2
-76 0z"/>
<path d="M5645 3640 c3 -5 17 -10 31 -10 l24 0 0 -190 0 -190 -25 0 c-14 0
-25 -4 -25 -10 0 -6 57 -10 150 -10 l150 0 0 39 c0 21 3 53 6 70 10 47 -13 39
-26 -10 -17 -63 -40 -79 -110 -79 l-60 0 0 190 0 190 30 0 c17 0 30 5 30 10 0
6 -37 10 -91 10 -57 0 -88 -4 -84 -10z"/>
<path d="M6210 3640 c0 -5 11 -10 25 -10 l25 0 0 -190 0 -190 -25 0 c-14 0
-25 -4 -25 -10 0 -6 35 -10 86 -10 54 0 83 4 79 10 -3 6 -17 10 -31 10 l-24 0
0 190 0 190 24 0 c14 0 28 5 31 10 4 6 -25 10 -79 10 -51 0 -86 -4 -86 -10z"/>
<path d="M6645 3640 c3 -5 17 -10 31 -10 l24 0 0 -190 0 -190 -30 0 c-16 0
-30 -4 -30 -10 0 -6 30 -10 70 -10 40 0 70 4 70 10 0 6 -11 10 -25 10 l-25 0
1 143 1 142 73 -150 c40 -82 77 -151 83 -153 5 -1 42 71 82 160 40 90 76 167
81 173 5 5 9 -59 9 -153 l0 -162 -30 0 c-16 0 -30 -4 -30 -10 0 -6 35 -10 85
-10 47 0 85 4 85 9 0 5 -12 11 -27 13 l-28 3 -3 188 -2 187 24 0 c14 0 28 5
31 10 4 6 -16 10 -52 10 l-58 0 -70 -161 c-39 -88 -74 -161 -79 -160 -4 0 -42
72 -84 161 l-75 160 -54 0 c-34 0 -52 -4 -48 -10z"/>
<path d="M4454 2887 c-2 -7 -3 -80 -2 -162 l3 -150 59 0 c51 1 61 4 82 28 32
38 32 86 -1 117 -22 21 -23 25 -11 39 35 39 23 118 -19 135 -30 11 -105 7
-111 -7z m119 -28 c39 -48 11 -99 -57 -106 l-46 -6 0 65 c0 36 3 68 8 72 13
14 77 -3 95 -25z m-13 -132 c79 -40 46 -137 -46 -137 l-44 0 0 75 0 75 33 0
c17 0 43 -6 57 -13z"/>
<path d="M4931 2878 c-19 -50 -91 -286 -91 -298 0 -23 13 -2 29 48 l16 47 59
1 c58 2 58 1 72 -35 50 -124 40 -59 -18 124 -24 74 -46 135 -51 135 -4 0 -11
-10 -16 -22z m44 -99 c14 -44 25 -82 25 -85 0 -2 -24 -4 -54 -4 l-54 0 13 48
c26 92 36 122 40 122 2 0 16 -36 30 -81z"/>
<path d="M5270 2734 c0 -107 3 -163 10 -159 6 3 10 36 10 73 l1 67 22 -25 c12
-14 39 -45 59 -70 21 -24 41 -41 44 -37 3 3 -21 38 -55 78 -34 40 -61 76 -61
80 0 4 27 38 60 76 80 91 76 106 -5 18 l-65 -70 0 68 c0 38 -4 67 -10 67 -6 0
-10 -62 -10 -166z"/>
<path d="M5640 2735 l0 -165 70 0 c87 0 93 18 8 22 l-63 3 0 70 0 70 45 6 45
5 -45 5 -45 4 0 65 0 65 58 1 c84 2 83 14 -1 14 l-72 0 0 -165z"/>
<path d="M5990 2740 c0 -100 4 -160 10 -160 6 0 10 28 10 65 l0 65 33 0 c40 0
56 -16 86 -84 12 -27 24 -46 27 -43 8 7 -25 97 -43 118 -11 13 -10 18 7 34 22
20 35 73 25 104 -13 42 -45 61 -102 61 l-53 0 0 -160z m123 119 c9 -12 17 -36
17 -54 0 -46 -27 -73 -77 -79 l-43 -4 0 84 0 84 43 -5 c26 -3 49 -13 60 -26z"/>
<path d="M6380 2896 c0 -2 18 -42 40 -89 35 -74 40 -94 40 -155 0 -39 5 -74
10 -77 6 -4 10 22 10 70 0 68 4 83 40 155 22 44 40 84 40 90 0 27 -18 3 -49
-65 -19 -41 -37 -75 -41 -75 -3 0 -21 34 -39 75 -18 41 -37 75 -42 75 -5 0 -9
-2 -9 -4z"/>
<path d="M4834 2277 c-3 -8 -4 -47 -2 -88 l3 -74 38 -3 c21 -2 37 1 37 7 0 6
-13 11 -30 11 -27 0 -30 3 -30 30 0 23 4 30 20 30 11 0 20 5 20 10 0 6 -9 10
-20 10 -16 0 -20 7 -20 30 0 19 5 30 13 29 28 -3 48 2 42 11 -9 15 -65 12 -71
-3z"/>
<path d="M5195 2281 c-3 -5 5 -11 17 -13 21 -3 23 -9 26 -81 4 -99 22 -92 22
9 0 68 2 74 21 74 11 0 17 5 14 10 -8 13 -92 13 -100 1z"/>
<path d="M5010 2261 c-14 -27 -4 -47 36 -70 19 -11 34 -24 34 -29 0 -18 -25
-31 -40 -22 -20 13 -30 12 -30 0 0 -6 11 -16 25 -22 21 -9 28 -8 45 7 34 30
19 70 -32 88 -10 4 -18 16 -18 28 0 19 4 21 35 16 35 -6 48 6 19 17 -31 12
-63 6 -74 -13z"/>
<path d="M5690 2255 c-16 -19 -5 -34 12 -17 7 7 22 12 34 12 44 0 36 -50 -16
-93 -17 -15 -28 -31 -25 -37 8 -13 82 -13 90 0 4 6 -7 10 -26 10 l-32 0 21 23
c52 55 46 117 -11 117 -19 0 -40 -7 -47 -15z"/>
<path d="M5890 2251 c-5 -11 -10 -40 -10 -65 0 -38 4 -48 25 -62 23 -15 27
-15 50 0 21 14 25 24 25 69 0 29 -5 58 -12 65 -19 19 -66 15 -78 -7z m71 -22
c24 -47 -13 -117 -47 -88 -14 12 -20 90 -7 102 13 14 43 6 54 -14z"/>
<path d="M6070 2206 c0 -35 3 -71 6 -80 13 -34 24 -2 24 70 0 59 -3 74 -15 74
-12 0 -15 -14 -15 -64z"/>
<path d="M6211 2244 c-31 -39 -28 -99 4 -120 23 -15 27 -15 50 0 45 30 29 96
-23 96 -21 0 -22 2 -12 15 7 8 18 15 26 15 7 0 16 5 19 10 14 23 -45 8 -64
-16z m57 -70 c4 -29 -23 -51 -43 -34 -16 13 -20 42 -8 54 14 14 48 1 51 -20z"/>
<path d="M5396 2131 c-4 -5 -2 -12 3 -15 5 -4 12 -2 15 3 4 5 2 12 -3 15 -5 4
-12 2 -15 -3z"/>
</g>
</svg>
